<svg width="120" height="120" viewBox="0 0 120 120" fill="none" xmlns="http://www.w3.org/2000/svg">
<g clip-path="url(#clip0_32_387)">
<path d="M60 10C87.57 10 110 32.43 110 60C110 87.57 87.57 110 60 110C32.43 110 10 87.57 10 60C10 32.43 32.43 10 60 10ZM60 0C26.865 0 0 26.865 0 60C0 93.135 26.865 120 60 120C93.135 120 120 93.135 120 60C120 26.865 93.135 0 60 0ZM60 15C35.145 15 15 35.145 15 60C15 84.855 35.145 105 60 105C84.855 105 105 84.855 105 60C105 35.145 84.855 15 60 15ZM65 84.735V90H60V85.01C54.825 84.92 49.47 83.685 45 81.375L47.275 73.155C52.055 75.01 58.42 76.98 63.4 75.855C69.145 74.555 70.325 68.645 63.97 65.8C59.315 63.63 45.08 61.775 45.08 49.585C45.08 42.77 50.275 36.67 60 35.335V30H65V35.09C68.625 35.185 72.675 35.815 77.21 37.19L75.4 45.43C71.56 44.08 67.32 42.855 63.19 43.105C55.745 43.54 55.09 49.985 60.285 52.685C68.84 56.705 80 59.69 80 70.415C80.01 79.005 73.28 83.575 65 84.735Z" fill="white"/>
</g>
<defs>
<clipPath id="clip0_32_387">
<rect width="120" height="120" fill="white"/>
</clipPath>
</defs>
</svg>
