<svg width="59" height="59" viewBox="0 0 59 59" fill="none" xmlns="http://www.w3.org/2000/svg">
<g clip-path="url(#clip0_11_6)">
<path d="M37.395 37.3949C41.9285 32.8614 41.9285 25.5111 37.395 20.9776C32.8615 16.4441 25.5112 16.4441 20.9777 20.9776C16.4442 25.5111 16.4442 32.8614 20.9777 37.3949C25.5112 41.9284 32.8615 41.9284 37.395 37.3949Z" stroke="#FEC227" stroke-width="2" stroke-miterlimit="10" stroke-linecap="round" stroke-linejoin="round"/>
<path d="M41.9553 41.9553C49.0074 34.9032 49.0074 23.4694 41.9553 16.4173C34.9032 9.36516 23.4694 9.36516 16.4173 16.4173C9.36519 23.4694 9.36519 34.9032 16.4173 41.9553C23.4694 49.0074 34.9032 49.0074 41.9553 41.9553Z" stroke="#FEC227" stroke-width="2" stroke-miterlimit="10" stroke-linecap="round" stroke-linejoin="round"/>
<path d="M16.4172 16.4173L20.9776 20.9777" stroke="#FEC227" stroke-width="2" stroke-miterlimit="10" stroke-linecap="round" stroke-linejoin="round"/>
<path d="M12.4954 22.3458L18.515 24.7171" stroke="#FEC227" stroke-width="2" stroke-miterlimit="10" stroke-linecap="round" stroke-linejoin="round"/>
<path d="M11.1273 29.1863H17.5118" stroke="#FEC227" stroke-width="2" stroke-miterlimit="10" stroke-linecap="round" stroke-linejoin="round"/>
<path d="M12.4954 36.0268L18.515 33.6554" stroke="#FEC227" stroke-width="2" stroke-miterlimit="10" stroke-linecap="round" stroke-linejoin="round"/>
<path d="M16.4172 41.9553L20.9776 37.3949" stroke="#FEC227" stroke-width="2" stroke-miterlimit="10" stroke-linecap="round" stroke-linejoin="round"/>
<path d="M22.3457 45.8772L24.7171 39.8575" stroke="#FEC227" stroke-width="2" stroke-miterlimit="10" stroke-linecap="round" stroke-linejoin="round"/>
<path d="M29.1863 47.2453L29.1863 40.8608" stroke="#FEC227" stroke-width="2" stroke-miterlimit="10" stroke-linecap="round" stroke-linejoin="round"/>
<path d="M36.0268 45.8772L33.6554 39.8575" stroke="#FEC227" stroke-width="2" stroke-miterlimit="10" stroke-linecap="round" stroke-linejoin="round"/>
<path d="M41.9553 41.9553L37.3949 37.3949" stroke="#FEC227" stroke-width="2" stroke-miterlimit="10" stroke-linecap="round" stroke-linejoin="round"/>
<path d="M45.8772 36.0268L39.8575 33.6555" stroke="#FEC227" stroke-width="2" stroke-miterlimit="10" stroke-linecap="round" stroke-linejoin="round"/>
<path d="M47.2453 29.1863H40.8608" stroke="#FEC227" stroke-width="2" stroke-miterlimit="10" stroke-linecap="round" stroke-linejoin="round"/>
<path d="M45.8772 22.3457L39.8575 24.7171" stroke="#FEC227" stroke-width="2" stroke-miterlimit="10" stroke-linecap="round" stroke-linejoin="round"/>
<path d="M41.9553 16.4173L37.3949 20.9777" stroke="#FEC227" stroke-width="2" stroke-miterlimit="10" stroke-linecap="round" stroke-linejoin="round"/>
<path d="M36.0268 12.4954L33.6554 18.5151" stroke="#FEC227" stroke-width="2" stroke-miterlimit="10" stroke-linecap="round" stroke-linejoin="round"/>
<path d="M29.1863 11.1273L29.1863 17.5118" stroke="#FEC227" stroke-width="2" stroke-miterlimit="10" stroke-linecap="round" stroke-linejoin="round"/>
<path d="M22.3457 12.4954L24.7171 18.515" stroke="#FEC227" stroke-width="2" stroke-miterlimit="10" stroke-linecap="round" stroke-linejoin="round"/>
<path d="M25.538 25.538C26.0417 25.0343 26.0417 24.2176 25.538 23.7138C25.0342 23.2101 24.2176 23.2101 23.7138 23.7138C23.2101 24.2176 23.2101 25.0343 23.7138 25.538C24.2176 26.0417 25.0342 26.0417 25.538 25.538Z" stroke="#FEC227" stroke-width="2" stroke-miterlimit="10" stroke-linecap="round" stroke-linejoin="round"/>
<path d="M30.0984 30.0984C30.6021 29.5946 30.6021 28.7779 30.0984 28.2742C29.5947 27.7705 28.778 27.7705 28.2743 28.2742C27.7705 28.7779 27.7705 29.5946 28.2743 30.0984C28.778 30.6021 29.5947 30.6021 30.0984 30.0984Z" stroke="#FEC227" stroke-width="2" stroke-miterlimit="10" stroke-linecap="round" stroke-linejoin="round"/>
<path d="M34.6587 25.538C35.1624 25.0343 35.1624 24.2176 34.6587 23.7138C34.155 23.2101 33.3383 23.2101 32.8346 23.7138C32.3308 24.2176 32.3308 25.0343 32.8346 25.538C33.3383 26.0417 34.155 26.0417 34.6587 25.538Z" stroke="#FEC227" stroke-width="2" stroke-miterlimit="10" stroke-linecap="round" stroke-linejoin="round"/>
<path d="M25.538 34.6587C26.0417 34.155 26.0417 33.3383 25.538 32.8346C25.0342 32.3308 24.2176 32.3308 23.7138 32.8346C23.2101 33.3383 23.2101 34.155 23.7138 34.6587C24.2176 35.1624 25.0342 35.1624 25.538 34.6587Z" stroke="#FEC227" stroke-width="2" stroke-miterlimit="10" stroke-linecap="round" stroke-linejoin="round"/>
<path d="M34.6587 34.6587C35.1624 34.155 35.1624 33.3383 34.6587 32.8346C34.155 32.3308 33.3383 32.3308 32.8346 32.8346C32.3308 33.3383 32.3308 34.155 32.8346 34.6587C33.3383 35.1624 34.155 35.1624 34.6587 34.6587Z" stroke="#FEC227" stroke-width="2" stroke-miterlimit="10" stroke-linecap="round" stroke-linejoin="round"/>
<path d="M24.626 33.7466L33.7467 24.6259" stroke="#FEC227" stroke-width="2" stroke-miterlimit="10" stroke-linecap="round" stroke-linejoin="round"/>
<path d="M33.7467 33.7466L24.626 24.6259" stroke="#FEC227" stroke-width="2" stroke-miterlimit="10" stroke-linecap="round" stroke-linejoin="round"/>
</g>
<defs>
<clipPath id="clip0_11_6">
<rect width="41.2756" height="41.2756" fill="white" transform="translate(0 29.1863) rotate(-45)"/>
</clipPath>
</defs>
</svg>
