<svg xmlns="http://www.w3.org/2000/svg" viewBox="0 0 252.15 50.3"><defs><style>.cls-1{fill:#fff;}.cls-2{fill:#fff0c2;}.cls-3{fill:#fde084;}.cls-4{fill:#ffd24c;}.cls-5{fill:#fdc227;}</style></defs><g id="Warstwa_2" data-name="Warstwa 2"><g id="Warstwa_1-2" data-name="Warstwa 1"><path class="cls-1" d="M35.77,14.46a31.84,31.84,0,0,0-7.75-3,26.56,26.56,0,0,0-7.72-.61,9.21,9.21,0,0,0-3.06.45,3.49,3.49,0,0,0-2.15,3.62,3,3,0,0,0,1,1.91A5.9,5.9,0,0,0,18.48,18s.93.21,9.54,2.38a24.22,24.22,0,0,1,7.75,3A14.54,14.54,0,0,1,39.94,27c2.89,3.91,2.89,9.87.6,14.31-2.69,5.17-7.83,7-10.14,7.75A21.54,21.54,0,0,1,25,50.23c-3.57,0-10,.39-14.31-.6A31.2,31.2,0,0,1,0,44.86L4.77,34.73c.57.3,1.39.72,2.38,1.19a39.82,39.82,0,0,0,7.75,3A23.14,23.14,0,0,0,25,38.9a4.32,4.32,0,0,0,3-1.79,2.56,2.56,0,0,0,.06-2.75,4.19,4.19,0,0,0-1.83-1.31c-.57-.23-4.64-1.32-8.77-2.66A52.41,52.41,0,0,1,7.2,26.21c-.73-.4-4.15-2.58-5.41-5.79a13.64,13.64,0,0,1,0-9.54A15.37,15.37,0,0,1,9.54,2.54,18,18,0,0,1,17.88.15c10.73-.59,14,.7,15.5,1.2a32.34,32.34,0,0,1,6.56,3Z"/><rect class="cls-2" x="49.34" y="1.31" width="38.8" height="10.56"/><rect class="cls-2" x="49.34" y="19.62" width="38.8" height="10.45"/><rect class="cls-2" x="49.34" y="38.39" width="38.8" height="10.93"/><polygon class="cls-3" points="95.3 1.31 109.55 34.69 117.3 17.4 110.41 1.31 95.3 1.31"/><polygon class="cls-3" points="136.21 1.31 149.95 1.31 129.82 49 115.87 49 136.21 1.31"/><rect class="cls-4" x="158.07" y="1.31" width="38.5" height="10.72"/><rect class="cls-4" x="158.07" y="19.74" width="38.5" height="10.21"/><rect class="cls-4" x="158.07" y="38.87" width="38.5" height="10.53"/><polygon class="cls-5" points="205.65 23.96 205.65 49.59 219.36 49.59 219.36 41.25 205.65 23.96"/><polygon class="cls-5" points="205.87 1.31 205.87 7.6 240.22 49.59 252.15 49.59 252.15 44.23 217.68 1.31 205.87 1.31"/><polygon class="cls-5" points="237.84 1.31 237.84 9.06 252.15 25.75 252.15 1.31 237.84 1.31"/></g></g></svg>