<svg width="28" height="28" viewBox="0 0 28 28" fill="none" xmlns="http://www.w3.org/2000/svg">
<path d="M14 13.3C21.7328 13.3 28 10.686 28 7.46486C28 4.24376 21.7328 1.6297 14 1.6297C6.26719 1.6297 0 4.24376 0 7.46486C0 10.686 6.26719 13.3 14 13.3ZM14 22.6297C8.65703 22.6297 3.93203 21.3445 0.951562 19.3594C0.344531 20.0156 0 20.7211 0 21.4649C0 24.686 6.26719 27.3 14 27.3C21.7328 27.3 28 24.686 28 21.4649C28 20.7211 27.6555 20.0156 27.0484 19.3649C24.068 21.3445 19.343 22.6297 14 22.6297ZM14 15.6297C8.65703 15.6297 3.93203 14.3445 0.951562 12.3594C0.344531 13.0156 0 13.7211 0 14.4649C0 17.686 6.26719 20.3 14 20.3C21.7328 20.3 28 17.686 28 14.4649C28 13.7211 27.6555 13.0156 27.0484 12.3649C24.068 14.3445 19.343 15.6297 14 15.6297Z" fill="#FEC227"/>
</svg>
